M48
; DRILL file {KiCad 9.0.0} date 2025-12-05T06:40:36-0400
; FORMAT={-:-/ absolute / metric / decimal}
; #@! TF.CreationDate,2025-12-05T06:40:36-04:00
; #@! TF.GenerationSoftware,Kicad,Pcbnew,9.0.0
; #@! TF.FileFunction,MixedPlating,1,2
FMAT,2
METRIC
; #@! TA.AperFunction,Plated,PTH,ViaDrill
T1C0.700
; #@! TA.AperFunction,Plated,PTH,ViaDrill
T2C0.800
; #@! TA.AperFunction,Plated,PTH,ComponentDrill
T3C0.800
; #@! TA.AperFunction,Plated,PTH,ComponentDrill
T4C0.900
; #@! TA.AperFunction,Plated,PTH,ComponentDrill
T5C0.950
; #@! TA.AperFunction,Plated,PTH,ViaDrill
T6C1.000
; #@! TA.AperFunction,Plated,PTH,ComponentDrill
T7C1.000
; #@! TA.AperFunction,Plated,PTH,ComponentDrill
T8C1.100
; #@! TA.AperFunction,Plated,PTH,ComponentDrill
T9C1.300
; #@! TA.AperFunction,Plated,PTH,ComponentDrill
T10C1.500
; #@! TA.AperFunction,NonPlated,NPTH,ComponentDrill
T11C0.900
%
G90
G05
T1
X53.0Y-59.5
X53.25Y-148.5
X169.0Y-59.5
X169.0Y-148.5
T2
X114.16Y-87.749
X114.16Y-97.97
X126.99Y-136.69
X131.71Y-136.8
X136.79Y-137.1
X140.65Y-90.5
X143.17Y-137.1
X148.25Y-137.06
X153.33Y-137.06
X158.0Y-118.25
X158.41Y-137.02
X158.43Y-90.5
X161.5Y-114.0
T3
X56.71Y-106.36
X56.71Y-110.173
X56.71Y-113.987
X56.71Y-117.8
X66.87Y-106.36
X66.87Y-110.173
X66.87Y-113.987
X66.87Y-117.8
X68.47Y-91.4
X68.709Y-145.055
X68.709Y-147.595
X68.709Y-150.135
X69.72Y-96.8
X72.22Y-96.8
X72.289Y-145.595
X72.289Y-149.095
X73.266Y-132.655
X73.266Y-142.815
X73.47Y-91.4
X76.543Y-132.665
X76.543Y-140.285
X78.12Y-111.05
X78.12Y-121.21
X79.083Y-132.665
X79.083Y-140.285
X81.287Y-111.05
X81.287Y-121.21
X82.35Y-132.655
X82.35Y-142.815
X82.449Y-145.595
X82.449Y-149.095
X84.41Y-77.977
X84.43Y-81.193
X84.43Y-84.41
X84.43Y-87.627
X84.453Y-111.05
X84.453Y-121.21
X85.598Y-132.655
X85.598Y-142.815
X87.62Y-111.05
X87.62Y-121.21
X88.875Y-132.665
X88.875Y-140.285
X91.415Y-132.665
X91.415Y-140.285
X94.57Y-77.977
X94.59Y-81.193
X94.59Y-84.41
X94.59Y-87.627
X94.682Y-132.655
X94.682Y-142.815
X97.66Y-105.85
X97.66Y-112.85
X97.66Y-119.85
X97.98Y-90.35
X97.98Y-95.35
X98.0Y-132.67
X98.0Y-142.83
X101.277Y-132.68
X101.277Y-140.3
X101.88Y-87.725
X101.88Y-97.885
X102.82Y-109.35
X102.82Y-116.35
X102.82Y-123.35
X103.817Y-132.68
X103.817Y-140.3
X105.43Y-87.755
X105.43Y-97.915
X107.085Y-132.67
X107.085Y-142.83
X107.82Y-105.85
X107.82Y-109.35
X107.82Y-112.85
X107.82Y-116.35
X107.82Y-119.85
X107.82Y-123.35
X108.98Y-87.71
X108.98Y-97.87
X110.332Y-132.67
X110.332Y-142.83
X110.369Y-145.595
X110.369Y-149.095
X112.88Y-90.32
X112.88Y-95.32
X113.609Y-132.68
X113.609Y-140.3
X116.149Y-132.68
X116.149Y-140.3
X119.416Y-132.67
X119.416Y-142.83
X120.529Y-145.595
X120.529Y-149.095
X124.169Y-144.555
X124.169Y-147.095
X124.169Y-149.635
X132.2Y-124.45
X137.2Y-124.45
T4
X108.95Y-79.97
X108.95Y-82.51
T5
X62.9Y-93.5
X62.9Y-96.0
X62.9Y-98.5
X62.9Y-101.0
X64.85Y-122.99
X64.85Y-125.49
X64.85Y-127.99
X64.85Y-130.49
X86.915Y-147.995
X89.415Y-147.995
X91.915Y-147.995
X100.949Y-147.995
X103.449Y-147.995
X105.949Y-147.995
X119.525Y-89.04
X119.525Y-91.54
X119.525Y-94.04
X119.525Y-96.54
X131.1Y-100.0
X131.1Y-102.5
X131.1Y-105.0
X167.4Y-100.0
X167.4Y-102.5
X167.4Y-105.0
T6
X147.8Y-106.2
X151.0Y-122.5
X154.5Y-126.75
X161.5Y-105.0
T7
X63.5Y-58.0
X63.5Y-66.0
X63.8Y-136.78
X63.8Y-139.28
X74.05Y-101.987
X74.05Y-127.387
X76.59Y-101.987
X76.59Y-127.387
X79.13Y-101.987
X79.13Y-127.387
X81.5Y-58.0
X81.5Y-62.0
X81.67Y-93.28
X81.67Y-101.987
X81.67Y-127.387
X84.21Y-93.28
X84.21Y-101.987
X84.21Y-127.387
X86.75Y-93.28
X86.75Y-101.987
X86.75Y-127.387
X86.81Y-59.32
X86.81Y-61.82
X86.81Y-67.785
X86.81Y-70.285
X89.29Y-93.28
X89.29Y-101.987
X89.29Y-127.387
X91.83Y-101.987
X91.83Y-127.387
X93.805Y-57.795
X93.805Y-61.095
X93.805Y-68.465
X93.805Y-71.765
X94.37Y-101.987
X94.37Y-127.387
X96.91Y-101.987
X96.91Y-127.387
X99.45Y-101.987
X99.45Y-127.387
X101.82Y-80.0
X101.82Y-82.5
X101.99Y-101.987
X101.99Y-127.387
X104.53Y-101.987
X104.53Y-127.387
X107.07Y-101.987
X107.07Y-127.387
X109.61Y-101.987
X109.61Y-127.387
X112.15Y-101.987
X112.15Y-127.387
X114.69Y-101.987
X114.69Y-127.387
X116.07Y-80.0
X116.07Y-82.5
X116.665Y-57.795
X116.665Y-71.765
X117.23Y-101.987
X117.23Y-127.387
X119.77Y-101.987
X119.77Y-127.387
X132.2Y-111.035
X132.2Y-113.575
X139.458Y-58.496
X139.458Y-61.036
X139.458Y-69.164
X139.458Y-71.704
X140.65Y-103.08
X141.92Y-98.0
X143.19Y-103.08
X144.46Y-98.0
X145.73Y-103.08
X145.975Y-75.5
X147.0Y-98.0
X148.27Y-103.08
X148.515Y-75.5
X149.54Y-98.0
X150.81Y-103.08
X151.055Y-75.5
X152.08Y-98.0
X153.35Y-103.08
X154.62Y-98.0
X155.89Y-103.08
X157.16Y-98.0
X158.0Y-58.496
X158.0Y-61.036
X158.0Y-69.164
X158.0Y-71.704
X158.43Y-103.08
T8
X120.96Y-62.44
X120.96Y-67.11
X131.12Y-62.44
X131.12Y-67.11
T9
X167.468Y-72.1
X167.468Y-77.1
T10
X131.71Y-141.04
X136.79Y-141.04
X143.17Y-141.04
X148.25Y-141.04
X153.33Y-141.04
X158.41Y-141.04
T11
X67.71Y-75.13
X67.71Y-83.13
M30
