%TF.GenerationSoftware,KiCad,Pcbnew,9.0.0*%
%TF.CreationDate,2025-12-05T06:40:31-04:00*%
%TF.ProjectId,electronicBoard,656c6563-7472-46f6-9e69-63426f617264,rev?*%
%TF.SameCoordinates,Original*%
%TF.FileFunction,Soldermask,Top*%
%TF.FilePolarity,Negative*%
%FSLAX46Y46*%
G04 Gerber Fmt 4.6, Leading zero omitted, Abs format (unit mm)*
G04 Created by KiCad (PCBNEW 9.0.0) date 2025-12-05 06:40:31*
%MOMM*%
%LPD*%
G01*
G04 APERTURE LIST*
%ADD10C,1.600000*%
%ADD11O,1.600000X1.600000*%
%ADD12O,1.700000X1.950000*%
%ADD13R,1.800000X1.800000*%
%ADD14C,1.800000*%
%ADD15O,2.000000X1.700000*%
%ADD16R,1.500000X1.500000*%
%ADD17C,1.500000*%
%ADD18R,1.700000X1.700000*%
%ADD19O,1.700000X1.700000*%
%ADD20O,1.950000X1.700000*%
%ADD21R,2.200000X2.200000*%
%ADD22O,2.200000X2.200000*%
%ADD23O,2.500000X2.000000*%
%ADD24C,2.200000*%
%ADD25C,1.700000*%
%ADD26O,1.700000X2.000000*%
%ADD27O,2.500000X3.000000*%
%ADD28C,2.004000*%
%ADD29C,0.900000*%
%ADD30R,2.000000X0.800000*%
%ADD31R,2.200000X1.200000*%
%ADD32R,1.400000X1.600000*%
%ADD33R,1.400000X1.200000*%
%ADD34C,2.800000*%
G04 APERTURE END LIST*
D10*
%TO.C,R19*%
X56710000Y-110173333D03*
D11*
X66870000Y-110173333D03*
%TD*%
%TO.C,J4*%
G36*
G01*
X106798637Y-147270000D02*
X106798637Y-148720000D01*
G75*
G02*
X106548637Y-148970000I-250000J0D01*
G01*
X105348637Y-148970000D01*
G75*
G02*
X105098637Y-148720000I0J250000D01*
G01*
X105098637Y-147270000D01*
G75*
G02*
X105348637Y-147020000I250000J0D01*
G01*
X106548637Y-147020000D01*
G75*
G02*
X106798637Y-147270000I0J-250000D01*
G01*
G37*
D12*
X103448637Y-147995000D03*
X100948637Y-147995000D03*
%TD*%
D13*
%TO.C,D9*%
X108950000Y-82510000D03*
D14*
X108950000Y-79970000D03*
%TD*%
%TO.C,J23*%
G36*
G01*
X87560000Y-62670000D02*
X86060000Y-62670000D01*
G75*
G02*
X85810000Y-62420000I0J250000D01*
G01*
X85810000Y-61220000D01*
G75*
G02*
X86060000Y-60970000I250000J0D01*
G01*
X87560000Y-60970000D01*
G75*
G02*
X87810000Y-61220000I0J-250000D01*
G01*
X87810000Y-62420000D01*
G75*
G02*
X87560000Y-62670000I-250000J0D01*
G01*
G37*
D15*
X86810000Y-59320000D03*
%TD*%
D10*
%TO.C,R3*%
X119416364Y-132670000D03*
D11*
X119416364Y-142830000D03*
%TD*%
D16*
%TO.C,Q2*%
X124168637Y-144555000D03*
D17*
X124168637Y-147095000D03*
X124168637Y-149635000D03*
%TD*%
%TO.C,D11*%
G36*
G01*
X163250000Y-114650000D02*
X163250000Y-113350000D01*
G75*
G02*
X163500000Y-113100000I250000J0D01*
G01*
X165500000Y-113100000D01*
G75*
G02*
X165750000Y-113350000I0J-250000D01*
G01*
X165750000Y-114650000D01*
G75*
G02*
X165500000Y-114900000I-250000J0D01*
G01*
X163500000Y-114900000D01*
G75*
G02*
X163250000Y-114650000I0J250000D01*
G01*
G37*
G36*
G01*
X167250000Y-114650000D02*
X167250000Y-113350000D01*
G75*
G02*
X167500000Y-113100000I250000J0D01*
G01*
X169500000Y-113100000D01*
G75*
G02*
X169750000Y-113350000I0J-250000D01*
G01*
X169750000Y-114650000D01*
G75*
G02*
X169500000Y-114900000I-250000J0D01*
G01*
X167500000Y-114900000D01*
G75*
G02*
X167250000Y-114650000I0J250000D01*
G01*
G37*
%TD*%
%TO.C,J15*%
G36*
G01*
X87560000Y-71135000D02*
X86060000Y-71135000D01*
G75*
G02*
X85810000Y-70885000I0J250000D01*
G01*
X85810000Y-69685000D01*
G75*
G02*
X86060000Y-69435000I250000J0D01*
G01*
X87560000Y-69435000D01*
G75*
G02*
X87810000Y-69685000I0J-250000D01*
G01*
X87810000Y-70885000D01*
G75*
G02*
X87560000Y-71135000I-250000J0D01*
G01*
G37*
D15*
X86810000Y-67785000D03*
%TD*%
D10*
%TO.C,R38*%
X97660000Y-105850000D03*
D11*
X107820000Y-105850000D03*
%TD*%
D18*
%TO.C,J25*%
X132200000Y-113575000D03*
D19*
X132200000Y-111035000D03*
%TD*%
D10*
%TO.C,R25*%
X94590000Y-87626667D03*
D11*
X84430000Y-87626667D03*
%TD*%
D10*
%TO.C,C5*%
X97980000Y-95350000D03*
X97980000Y-90350000D03*
%TD*%
%TO.C,R11*%
X72288637Y-149095000D03*
D11*
X82448637Y-149095000D03*
%TD*%
D10*
%TO.C,R2*%
X82350454Y-132655000D03*
D11*
X82350454Y-142815000D03*
%TD*%
D10*
%TO.C,R41*%
X105430000Y-87755000D03*
D11*
X105430000Y-97915000D03*
%TD*%
D10*
%TO.C,R27*%
X78120000Y-111050000D03*
D11*
X78120000Y-121210000D03*
%TD*%
%TO.C,J2*%
G36*
G01*
X64550000Y-140130000D02*
X63050000Y-140130000D01*
G75*
G02*
X62800000Y-139880000I0J250000D01*
G01*
X62800000Y-138680000D01*
G75*
G02*
X63050000Y-138430000I250000J0D01*
G01*
X64550000Y-138430000D01*
G75*
G02*
X64800000Y-138680000I0J-250000D01*
G01*
X64800000Y-139880000D01*
G75*
G02*
X64550000Y-140130000I-250000J0D01*
G01*
G37*
D15*
X63800000Y-136780000D03*
%TD*%
D10*
%TO.C,R34*%
X108980000Y-87710000D03*
D11*
X108980000Y-97870000D03*
%TD*%
%TO.C,D7*%
G36*
G01*
X163250000Y-127400000D02*
X163250000Y-126100000D01*
G75*
G02*
X163500000Y-125850000I250000J0D01*
G01*
X165500000Y-125850000D01*
G75*
G02*
X165750000Y-126100000I0J-250000D01*
G01*
X165750000Y-127400000D01*
G75*
G02*
X165500000Y-127650000I-250000J0D01*
G01*
X163500000Y-127650000D01*
G75*
G02*
X163250000Y-127400000I0J250000D01*
G01*
G37*
G36*
G01*
X167250000Y-127400000D02*
X167250000Y-126100000D01*
G75*
G02*
X167500000Y-125850000I250000J0D01*
G01*
X169500000Y-125850000D01*
G75*
G02*
X169750000Y-126100000I0J-250000D01*
G01*
X169750000Y-127400000D01*
G75*
G02*
X169500000Y-127650000I-250000J0D01*
G01*
X167500000Y-127650000D01*
G75*
G02*
X167250000Y-127400000I0J250000D01*
G01*
G37*
%TD*%
%TO.C,D5*%
G36*
G01*
X142750000Y-118900000D02*
X142750000Y-117600000D01*
G75*
G02*
X143000000Y-117350000I250000J0D01*
G01*
X145000000Y-117350000D01*
G75*
G02*
X145250000Y-117600000I0J-250000D01*
G01*
X145250000Y-118900000D01*
G75*
G02*
X145000000Y-119150000I-250000J0D01*
G01*
X143000000Y-119150000D01*
G75*
G02*
X142750000Y-118900000I0J250000D01*
G01*
G37*
G36*
G01*
X146750000Y-118900000D02*
X146750000Y-117600000D01*
G75*
G02*
X147000000Y-117350000I250000J0D01*
G01*
X149000000Y-117350000D01*
G75*
G02*
X149250000Y-117600000I0J-250000D01*
G01*
X149250000Y-118900000D01*
G75*
G02*
X149000000Y-119150000I-250000J0D01*
G01*
X147000000Y-119150000D01*
G75*
G02*
X146750000Y-118900000I0J250000D01*
G01*
G37*
%TD*%
D10*
%TO.C,R8*%
X110331819Y-142830000D03*
D11*
X110331819Y-132670000D03*
%TD*%
D10*
%TO.C,R6*%
X81286667Y-111050000D03*
D11*
X81286667Y-121210000D03*
%TD*%
%TO.C,D6*%
G36*
G01*
X142750000Y-114650000D02*
X142750000Y-113350000D01*
G75*
G02*
X143000000Y-113100000I250000J0D01*
G01*
X145000000Y-113100000D01*
G75*
G02*
X145250000Y-113350000I0J-250000D01*
G01*
X145250000Y-114650000D01*
G75*
G02*
X145000000Y-114900000I-250000J0D01*
G01*
X143000000Y-114900000D01*
G75*
G02*
X142750000Y-114650000I0J250000D01*
G01*
G37*
G36*
G01*
X146750000Y-114650000D02*
X146750000Y-113350000D01*
G75*
G02*
X147000000Y-113100000I250000J0D01*
G01*
X149000000Y-113100000D01*
G75*
G02*
X149250000Y-113350000I0J-250000D01*
G01*
X149250000Y-114650000D01*
G75*
G02*
X149000000Y-114900000I-250000J0D01*
G01*
X147000000Y-114900000D01*
G75*
G02*
X146750000Y-114650000I0J250000D01*
G01*
G37*
%TD*%
%TO.C,J8*%
G36*
G01*
X62175000Y-92650000D02*
X63625000Y-92650000D01*
G75*
G02*
X63875000Y-92900000I0J-250000D01*
G01*
X63875000Y-94100000D01*
G75*
G02*
X63625000Y-94350000I-250000J0D01*
G01*
X62175000Y-94350000D01*
G75*
G02*
X61925000Y-94100000I0J250000D01*
G01*
X61925000Y-92900000D01*
G75*
G02*
X62175000Y-92650000I250000J0D01*
G01*
G37*
D20*
X62900000Y-96000000D03*
X62900000Y-98500000D03*
X62900000Y-101000000D03*
%TD*%
D21*
%TO.C,D2*%
X131120000Y-62440000D03*
D22*
X120960000Y-62440000D03*
%TD*%
D10*
%TO.C,R1*%
X94682273Y-132655000D03*
D11*
X94682273Y-142815000D03*
%TD*%
D10*
%TO.C,R21*%
X101880000Y-87725000D03*
D11*
X101880000Y-97885000D03*
%TD*%
D10*
%TO.C,C4*%
X112880000Y-90320000D03*
X112880000Y-95320000D03*
%TD*%
%TO.C,R14*%
X110368637Y-149095000D03*
D11*
X120528637Y-149095000D03*
%TD*%
%TO.C,U3*%
G36*
G01*
X78533182Y-131865000D02*
X79633182Y-131865000D01*
G75*
G02*
X79883182Y-132115000I0J-250000D01*
G01*
X79883182Y-133215000D01*
G75*
G02*
X79633182Y-133465000I-250000J0D01*
G01*
X78533182Y-133465000D01*
G75*
G02*
X78283182Y-133215000I0J250000D01*
G01*
X78283182Y-132115000D01*
G75*
G02*
X78533182Y-131865000I250000J0D01*
G01*
G37*
D10*
X76543182Y-132665000D03*
X76543182Y-140285000D03*
X79083182Y-140285000D03*
%TD*%
D23*
%TO.C,U9*%
X116665000Y-71765000D03*
X116665000Y-57795000D03*
X93805000Y-71765000D03*
X93805000Y-57795000D03*
X93805000Y-68465000D03*
X93805000Y-61095000D03*
%TD*%
D24*
%TO.C,U8*%
X158000000Y-61036000D03*
X158000000Y-58496000D03*
X158000000Y-71704000D03*
X158000000Y-69164000D03*
X139458000Y-61036000D03*
X139458000Y-58496000D03*
X139458000Y-71704000D03*
X139458000Y-69164000D03*
%TD*%
%TO.C,D10*%
G36*
G01*
X163250000Y-118900000D02*
X163250000Y-117600000D01*
G75*
G02*
X163500000Y-117350000I250000J0D01*
G01*
X165500000Y-117350000D01*
G75*
G02*
X165750000Y-117600000I0J-250000D01*
G01*
X165750000Y-118900000D01*
G75*
G02*
X165500000Y-119150000I-250000J0D01*
G01*
X163500000Y-119150000D01*
G75*
G02*
X163250000Y-118900000I0J250000D01*
G01*
G37*
G36*
G01*
X167250000Y-118900000D02*
X167250000Y-117600000D01*
G75*
G02*
X167500000Y-117350000I250000J0D01*
G01*
X169500000Y-117350000D01*
G75*
G02*
X169750000Y-117600000I0J-250000D01*
G01*
X169750000Y-118900000D01*
G75*
G02*
X169500000Y-119150000I-250000J0D01*
G01*
X167500000Y-119150000D01*
G75*
G02*
X167250000Y-118900000I0J250000D01*
G01*
G37*
%TD*%
D25*
%TO.C,J11*%
X145975000Y-75500000D03*
D26*
X148515000Y-75500000D03*
X151055000Y-75500000D03*
%TD*%
D10*
%TO.C,R15*%
X98000000Y-142830000D03*
D11*
X98000000Y-132670000D03*
%TD*%
D27*
%TO.C,J12*%
X143170000Y-141040000D03*
X148250000Y-141040000D03*
X153330000Y-141040000D03*
X158410000Y-141040000D03*
%TD*%
%TO.C,J6*%
G36*
G01*
X102570000Y-83350000D02*
X101070000Y-83350000D01*
G75*
G02*
X100820000Y-83100000I0J250000D01*
G01*
X100820000Y-81900000D01*
G75*
G02*
X101070000Y-81650000I250000J0D01*
G01*
X102570000Y-81650000D01*
G75*
G02*
X102820000Y-81900000I0J-250000D01*
G01*
X102820000Y-83100000D01*
G75*
G02*
X102570000Y-83350000I-250000J0D01*
G01*
G37*
D15*
X101820000Y-80000000D03*
%TD*%
D27*
%TO.C,J13*%
X131710000Y-141040000D03*
X136790000Y-141040000D03*
%TD*%
D10*
%TO.C,R9*%
X56710000Y-106360000D03*
D11*
X66870000Y-106360000D03*
%TD*%
D16*
%TO.C,Q1*%
X68708637Y-150135000D03*
D17*
X68708637Y-147595000D03*
X68708637Y-145055000D03*
%TD*%
%TO.C,U1*%
G36*
G01*
X74950000Y-128389500D02*
X73150000Y-128389500D01*
G75*
G02*
X73048000Y-128287500I0J102000D01*
G01*
X73048000Y-126487500D01*
G75*
G02*
X73150000Y-126385500I102000J0D01*
G01*
X74950000Y-126385500D01*
G75*
G02*
X75052000Y-126487500I0J-102000D01*
G01*
X75052000Y-128287500D01*
G75*
G02*
X74950000Y-128389500I-102000J0D01*
G01*
G37*
D28*
X76590000Y-127387500D03*
X79130000Y-127387500D03*
X81670000Y-127387500D03*
X84210000Y-127387500D03*
X86750000Y-127387500D03*
X89290000Y-127387500D03*
X91830000Y-127387500D03*
X94370000Y-127387500D03*
X96910000Y-127387500D03*
X99450000Y-127387500D03*
X101990000Y-127387500D03*
X104530000Y-127387500D03*
X107070000Y-127387500D03*
X109610000Y-127387500D03*
X112150000Y-127387500D03*
X114690000Y-127387500D03*
X117230000Y-127387500D03*
X119770000Y-127387500D03*
X119770000Y-101987500D03*
X117230000Y-101987500D03*
X114690000Y-101987500D03*
X112150000Y-101987500D03*
X109610000Y-101987500D03*
X107070000Y-101987500D03*
X104530000Y-101987500D03*
X101990000Y-101987500D03*
X99450000Y-101987500D03*
X96910000Y-101987500D03*
X94370000Y-101987500D03*
X91830000Y-101987500D03*
X89290000Y-101987500D03*
X86750000Y-101987500D03*
X84210000Y-101987500D03*
X81670000Y-101987500D03*
X79130000Y-101987500D03*
X76590000Y-101987500D03*
X74050000Y-101987500D03*
%TD*%
D10*
%TO.C,R39*%
X97660000Y-119850000D03*
D11*
X107820000Y-119850000D03*
%TD*%
D10*
%TO.C,R10*%
X73265909Y-142815000D03*
D11*
X73265909Y-132655000D03*
%TD*%
%TO.C,D8*%
G36*
G01*
X163250000Y-123150000D02*
X163250000Y-121850000D01*
G75*
G02*
X163500000Y-121600000I250000J0D01*
G01*
X165500000Y-121600000D01*
G75*
G02*
X165750000Y-121850000I0J-250000D01*
G01*
X165750000Y-123150000D01*
G75*
G02*
X165500000Y-123400000I-250000J0D01*
G01*
X163500000Y-123400000D01*
G75*
G02*
X163250000Y-123150000I0J250000D01*
G01*
G37*
G36*
G01*
X167250000Y-123150000D02*
X167250000Y-121850000D01*
G75*
G02*
X167500000Y-121600000I250000J0D01*
G01*
X169500000Y-121600000D01*
G75*
G02*
X169750000Y-121850000I0J-250000D01*
G01*
X169750000Y-123150000D01*
G75*
G02*
X169500000Y-123400000I-250000J0D01*
G01*
X167500000Y-123400000D01*
G75*
G02*
X167250000Y-123150000I0J250000D01*
G01*
G37*
%TD*%
D29*
%TO.C,U4*%
X67710000Y-83130000D03*
X67710000Y-75130000D03*
D30*
X78410000Y-82330000D03*
X78410000Y-81230000D03*
X78410000Y-80130000D03*
X78410000Y-79030000D03*
X78410000Y-77930000D03*
X78410000Y-76830000D03*
X78410000Y-75730000D03*
X78410000Y-74630000D03*
X78410000Y-73530000D03*
D31*
X68110000Y-87830000D03*
D32*
X77710000Y-86930000D03*
D31*
X68110000Y-72330000D03*
D33*
X77710000Y-72330000D03*
%TD*%
D10*
%TO.C,C6*%
X107820000Y-116350000D03*
X102820000Y-116350000D03*
%TD*%
%TO.C,C8*%
X102820000Y-123350000D03*
X107820000Y-123350000D03*
%TD*%
%TO.C,R18*%
X87620000Y-111050000D03*
D11*
X87620000Y-121210000D03*
%TD*%
D24*
%TO.C,U7*%
X81500000Y-58000000D03*
X81500000Y-62000000D03*
X63500000Y-66000000D03*
X63500000Y-58000000D03*
%TD*%
D10*
%TO.C,C1*%
X132200000Y-124450000D03*
X137200000Y-124450000D03*
%TD*%
%TO.C,J5*%
G36*
G01*
X92765000Y-147270000D02*
X92765000Y-148720000D01*
G75*
G02*
X92515000Y-148970000I-250000J0D01*
G01*
X91315000Y-148970000D01*
G75*
G02*
X91065000Y-148720000I0J250000D01*
G01*
X91065000Y-147270000D01*
G75*
G02*
X91315000Y-147020000I250000J0D01*
G01*
X92515000Y-147020000D01*
G75*
G02*
X92765000Y-147270000I0J-250000D01*
G01*
G37*
D12*
X89415000Y-147995000D03*
X86915000Y-147995000D03*
%TD*%
%TO.C,D3*%
G36*
G01*
X142750000Y-127400000D02*
X142750000Y-126100000D01*
G75*
G02*
X143000000Y-125850000I250000J0D01*
G01*
X145000000Y-125850000D01*
G75*
G02*
X145250000Y-126100000I0J-250000D01*
G01*
X145250000Y-127400000D01*
G75*
G02*
X145000000Y-127650000I-250000J0D01*
G01*
X143000000Y-127650000D01*
G75*
G02*
X142750000Y-127400000I0J250000D01*
G01*
G37*
G36*
G01*
X146750000Y-127400000D02*
X146750000Y-126100000D01*
G75*
G02*
X147000000Y-125850000I250000J0D01*
G01*
X149000000Y-125850000D01*
G75*
G02*
X149250000Y-126100000I0J-250000D01*
G01*
X149250000Y-127400000D01*
G75*
G02*
X149000000Y-127650000I-250000J0D01*
G01*
X147000000Y-127650000D01*
G75*
G02*
X146750000Y-127400000I0J250000D01*
G01*
G37*
%TD*%
%TO.C,D4*%
G36*
G01*
X142750000Y-123150000D02*
X142750000Y-121850000D01*
G75*
G02*
X143000000Y-121600000I250000J0D01*
G01*
X145000000Y-121600000D01*
G75*
G02*
X145250000Y-121850000I0J-250000D01*
G01*
X145250000Y-123150000D01*
G75*
G02*
X145000000Y-123400000I-250000J0D01*
G01*
X143000000Y-123400000D01*
G75*
G02*
X142750000Y-123150000I0J250000D01*
G01*
G37*
G36*
G01*
X146750000Y-123150000D02*
X146750000Y-121850000D01*
G75*
G02*
X147000000Y-121600000I250000J0D01*
G01*
X149000000Y-121600000D01*
G75*
G02*
X149250000Y-121850000I0J-250000D01*
G01*
X149250000Y-123150000D01*
G75*
G02*
X149000000Y-123400000I-250000J0D01*
G01*
X147000000Y-123400000D01*
G75*
G02*
X146750000Y-123150000I0J250000D01*
G01*
G37*
%TD*%
%TO.C,J1*%
G36*
G01*
X64125000Y-122140000D02*
X65575000Y-122140000D01*
G75*
G02*
X65825000Y-122390000I0J-250000D01*
G01*
X65825000Y-123590000D01*
G75*
G02*
X65575000Y-123840000I-250000J0D01*
G01*
X64125000Y-123840000D01*
G75*
G02*
X63875000Y-123590000I0J250000D01*
G01*
X63875000Y-122390000D01*
G75*
G02*
X64125000Y-122140000I250000J0D01*
G01*
G37*
D20*
X64850000Y-125490000D03*
X64850000Y-127990000D03*
X64850000Y-130490000D03*
%TD*%
D10*
%TO.C,R5*%
X56710000Y-113986667D03*
D11*
X66870000Y-113986667D03*
%TD*%
D18*
%TO.C,U14*%
X89290000Y-93280000D03*
D19*
X86750000Y-93280000D03*
X84210000Y-93280000D03*
X81670000Y-93280000D03*
%TD*%
%TO.C,J14*%
G36*
G01*
X168617499Y-78500000D02*
X166317501Y-78500000D01*
G75*
G02*
X166067500Y-78249999I0J250001D01*
G01*
X166067500Y-75950001D01*
G75*
G02*
X166317501Y-75700000I250001J0D01*
G01*
X168617499Y-75700000D01*
G75*
G02*
X168867500Y-75950001I0J-250001D01*
G01*
X168867500Y-78249999D01*
G75*
G02*
X168617499Y-78500000I-250001J0D01*
G01*
G37*
D34*
X167467500Y-72100000D03*
%TD*%
%TO.C,J3*%
G36*
G01*
X118800000Y-88190000D02*
X120250000Y-88190000D01*
G75*
G02*
X120500000Y-88440000I0J-250000D01*
G01*
X120500000Y-89640000D01*
G75*
G02*
X120250000Y-89890000I-250000J0D01*
G01*
X118800000Y-89890000D01*
G75*
G02*
X118550000Y-89640000I0J250000D01*
G01*
X118550000Y-88440000D01*
G75*
G02*
X118800000Y-88190000I250000J0D01*
G01*
G37*
D20*
X119525000Y-91540000D03*
X119525000Y-94040000D03*
X119525000Y-96540000D03*
%TD*%
%TO.C,U5*%
G36*
G01*
X115599091Y-131880000D02*
X116699091Y-131880000D01*
G75*
G02*
X116949091Y-132130000I0J-250000D01*
G01*
X116949091Y-133230000D01*
G75*
G02*
X116699091Y-133480000I-250000J0D01*
G01*
X115599091Y-133480000D01*
G75*
G02*
X115349091Y-133230000I0J250000D01*
G01*
X115349091Y-132130000D01*
G75*
G02*
X115599091Y-131880000I250000J0D01*
G01*
G37*
D10*
X113609091Y-132680000D03*
X113609091Y-140300000D03*
X116149091Y-140300000D03*
%TD*%
%TO.C,C14*%
X72220000Y-96800000D03*
X69720000Y-96800000D03*
%TD*%
%TO.C,R24*%
X94570000Y-77976667D03*
D11*
X84410000Y-77976667D03*
%TD*%
D21*
%TO.C,D1*%
X120960000Y-67110000D03*
D22*
X131120000Y-67110000D03*
%TD*%
D10*
%TO.C,R12*%
X82448637Y-145595000D03*
D11*
X72288637Y-145595000D03*
%TD*%
%TO.C,J7*%
G36*
G01*
X116820000Y-83350000D02*
X115320000Y-83350000D01*
G75*
G02*
X115070000Y-83100000I0J250000D01*
G01*
X115070000Y-81900000D01*
G75*
G02*
X115320000Y-81650000I250000J0D01*
G01*
X116820000Y-81650000D01*
G75*
G02*
X117070000Y-81900000I0J-250000D01*
G01*
X117070000Y-83100000D01*
G75*
G02*
X116820000Y-83350000I-250000J0D01*
G01*
G37*
D15*
X116070000Y-80000000D03*
%TD*%
%TO.C,U2*%
G36*
G01*
X90865000Y-131865000D02*
X91965000Y-131865000D01*
G75*
G02*
X92215000Y-132115000I0J-250000D01*
G01*
X92215000Y-133215000D01*
G75*
G02*
X91965000Y-133465000I-250000J0D01*
G01*
X90865000Y-133465000D01*
G75*
G02*
X90615000Y-133215000I0J250000D01*
G01*
X90615000Y-132115000D01*
G75*
G02*
X90865000Y-131865000I250000J0D01*
G01*
G37*
D10*
X88875000Y-132665000D03*
X88875000Y-140285000D03*
X91415000Y-140285000D03*
%TD*%
%TO.C,R13*%
X120528637Y-145595000D03*
D11*
X110368637Y-145595000D03*
%TD*%
D10*
%TO.C,R22*%
X84430000Y-81193334D03*
D11*
X94590000Y-81193334D03*
%TD*%
D10*
%TO.C,R37*%
X97660000Y-112850000D03*
D11*
X107820000Y-112850000D03*
%TD*%
%TO.C,U6*%
G36*
G01*
X103267273Y-131880000D02*
X104367273Y-131880000D01*
G75*
G02*
X104617273Y-132130000I0J-250000D01*
G01*
X104617273Y-133230000D01*
G75*
G02*
X104367273Y-133480000I-250000J0D01*
G01*
X103267273Y-133480000D01*
G75*
G02*
X103017273Y-133230000I0J250000D01*
G01*
X103017273Y-132130000D01*
G75*
G02*
X103267273Y-131880000I250000J0D01*
G01*
G37*
D10*
X101277273Y-132680000D03*
X101277273Y-140300000D03*
X103817273Y-140300000D03*
%TD*%
%TO.C,C7*%
X107820000Y-109350000D03*
X102820000Y-109350000D03*
%TD*%
%TO.C,R23*%
X84430000Y-84410000D03*
D11*
X94590000Y-84410000D03*
%TD*%
D10*
%TO.C,R26*%
X56710000Y-117800000D03*
D11*
X66870000Y-117800000D03*
%TD*%
D10*
%TO.C,R4*%
X107084546Y-132670000D03*
D11*
X107084546Y-142830000D03*
%TD*%
%TO.C,J9*%
G36*
G01*
X131825000Y-105850000D02*
X130375000Y-105850000D01*
G75*
G02*
X130125000Y-105600000I0J250000D01*
G01*
X130125000Y-104400000D01*
G75*
G02*
X130375000Y-104150000I250000J0D01*
G01*
X131825000Y-104150000D01*
G75*
G02*
X132075000Y-104400000I0J-250000D01*
G01*
X132075000Y-105600000D01*
G75*
G02*
X131825000Y-105850000I-250000J0D01*
G01*
G37*
D20*
X131100000Y-102500000D03*
X131100000Y-100000000D03*
%TD*%
D10*
%TO.C,R20*%
X84453333Y-111050000D03*
D11*
X84453333Y-121210000D03*
%TD*%
%TO.C,J10*%
G36*
G01*
X166675000Y-99150000D02*
X168125000Y-99150000D01*
G75*
G02*
X168375000Y-99400000I0J-250000D01*
G01*
X168375000Y-100600000D01*
G75*
G02*
X168125000Y-100850000I-250000J0D01*
G01*
X166675000Y-100850000D01*
G75*
G02*
X166425000Y-100600000I0J250000D01*
G01*
X166425000Y-99400000D01*
G75*
G02*
X166675000Y-99150000I250000J0D01*
G01*
G37*
D20*
X167400000Y-102500000D03*
X167400000Y-105000000D03*
%TD*%
D10*
%TO.C,R7*%
X85597727Y-142815000D03*
D11*
X85597727Y-132655000D03*
%TD*%
D10*
%TO.C,C11*%
X73470000Y-91400000D03*
X68470000Y-91400000D03*
%TD*%
D13*
%TO.C,U13*%
X140650000Y-103080000D03*
D14*
X141920000Y-98000000D03*
X143190000Y-103080000D03*
X144460000Y-98000000D03*
X145730000Y-103080000D03*
X147000000Y-98000000D03*
X148270000Y-103080000D03*
X149540000Y-98000000D03*
X150810000Y-103080000D03*
X152080000Y-98000000D03*
X153350000Y-103080000D03*
X154620000Y-98000000D03*
X155890000Y-103080000D03*
X157160000Y-98000000D03*
X158430000Y-103080000D03*
%TD*%
M02*
